<mxfile host="app.diagrams.net" modified="2023-08-30T21:13:02.409Z" agent="Mozilla/5.0 (Windows NT 10.0; Win64; x64) AppleWebKit/537.36 (KHTML, like Gecko) Chrome/116.0.0.0 Safari/537.36" version="21.1.1" etag="vceUygJDUKtqglIlhj5S" type="github">
  <diagram name="Sayfa -1" id="Uz_m7gKnTqWXOEMLSy2x">
    <mxGraphModel>
      <root>
        <mxCell id="0" />
        <mxCell id="1" parent="0" />
      </root>
    </mxGraphModel>
  </diagram>
</mxfile>
